<svg id="Layer_1" data-name="Layer 1" xmlns="http://www.w3.org/2000/svg" viewBox="0 0 180 180"><defs><style>.cls-1{fill:#3482f7;}.cls-2{fill:#036;}.cls-3{fill:#1f2a36;}.cls-4{fill:#fff;}</style></defs><title>gd_logo</title><path class="cls-1" d="M8.2,2.6h47a5,5,0,0,1,5,5V172.3a5.1,5.1,0,0,1-5.1,5.1H8.3a5.1,5.1,0,0,1-5.1-5.1V7.6A5,5,0,0,1,8.2,2.6Z"/><path class="cls-2" d="M66.5,2.6h47a5,5,0,0,1,5,5V172.3a5.1,5.1,0,0,1-5.1,5.1H66.6a5.1,5.1,0,0,1-5.1-5.1V7.6A5,5,0,0,1,66.5,2.6Z"/><path class="cls-3" d="M124.8,2.6h47a5,5,0,0,1,5,5V172.3a5.1,5.1,0,0,1-5.1,5.1H124.9a5.1,5.1,0,0,1-5.1-5.1V7.6A5,5,0,0,1,124.8,2.6Z"/><path class="cls-4" d="M49.4,47c14.8,0,25,5.5,33.4,14.1L69.2,73.7a28.9,28.9,0,0,0-19.8-8c-14.3,0-23.5,10.7-23.5,24.2s10.5,24.3,23.9,24.3,20.8-7.8,21.3-15.6H48.3v-17h44v7.6c0,23.7-13.9,43.6-42.9,43.6C24,132.8,6,113.9,6,89.9S24,47,49.4,47ZM22,81.6c3.2-11.5,13.4-19.7,27.4-19.7A35.8,35.8,0,0,1,69,68.3l7.7-7.5c-6.9-6.5-15.9-10-27.3-10-19.5,0-34.2,13-37.7,30.8Z"/><path class="cls-4" d="M105,49.7h27.9c23.6,0,41.9,17.4,41.9,40.1s-16.3,40.3-41.9,40.3H105Zm14.7,76.6V53.5h-9.8v72.8Zm12.8-14.2c12.5,0,22.1-8.8,22.1-22.3s-8.4-22.3-22.1-22.3h-7.9v44.6Z"/></svg>